# xmcd
#
# Track frame offsets: 
#        150
#        19037
#        34502
#        52645
#        68382
#        90850
#        105970
#        127972
#        150642
#        168682
#        186957
#        203965
#        219137
#        237285
#        249927
#        264240
#        279465
#        293432
#        308742
#
# Disc length: 4362 seconds
#
# Revision: 2
# Processed by: cddbd v1.5.2PL0 Copyright (c) Steve Scherf et al.
# Submitted via: ExactAudioCopyFreeDBPlugin 1.0
#
DISCID=e3110813
DTITLE=木村好夫 - Denon Hi Fi Acoustic Guitar
DYEAR=1998
DGENRE=Acoustic
TTITLE0=哀愁海峽
TTITLE1=含淚愛情
TTITLE2=通往小島的遊船
TTITLE3=小巷人生
TTITLE4=螢火蟲
TTITLE5=輪迴變遷
TTITLE6=喝酒
TTITLE7=空白日記
TTITLE8=鳳仙花
TTITLE9=品酒
TTITLE10=往返的船
TTITLE11=女人的階層
TTITLE12=幸福
TTITLE13=堪太郎的月夜
TTITLE14=酒館
TTITLE15=路邊的草帽
TTITLE16=酒啊，含淚的歎息
TTITLE17=左渡情話
TTITLE18=冰雨
EXTD=
EXTT0=
EXTT1=
EXTT2=
EXTT3=
EXTT4=
EXTT5=
EXTT6=
EXTT7=
EXTT8=
EXTT9=
EXTT10=
EXTT11=
EXTT12=
EXTT13=
EXTT14=
EXTT15=
EXTT16=
EXTT17=
EXTT18=
PLAYORDER=
